<svg width="125" height="26" viewBox="0 0 125 26" fill="none" xmlns="http://www.w3.org/2000/svg">
<g clip-path="url(#clip0_975_12409)">
<path d="M113.708 15.9827H114.884V17.2385H113.708V15.9827Z" fill="#77AA43"/>
<path d="M78.1351 8.20924C77.6231 8.41854 77.173 8.73249 76.8017 9.14528C76.4304 9.55807 76.1435 10.0871 75.9409 10.715C75.744 11.3371 75.6427 12.0639 75.6427 12.8778V17.4127H73.1504V5.41854H75.6427V8.70342L75.8847 8.09877C76.2504 7.19761 76.7736 6.46505 77.4431 5.92435C78.0788 5.41272 78.889 5.15691 79.851 5.18017V7.89528H79.8229C79.2153 7.89528 78.6471 7.99993 78.1351 8.20924Z" fill="#076B9C"/>
<path d="M69.6956 13.1106C69.6956 13.5175 69.6112 13.8896 69.448 14.2269C69.2849 14.5582 69.0486 14.8489 68.7448 15.0815C68.4466 15.3141 68.0978 15.4943 67.704 15.6222C67.3101 15.7501 66.8826 15.8141 66.4156 15.8141C65.7461 15.8141 65.1722 15.6513 64.7109 15.3257C64.2327 14.9943 63.9908 14.5001 63.9908 13.8722V13.8257C63.9908 13.192 64.2496 12.692 64.7672 12.3257C65.2679 11.971 65.9655 11.7908 66.8432 11.7908C67.372 11.7908 67.884 11.8373 68.3622 11.9303C68.8404 12.0234 69.2624 12.1455 69.6112 12.285L69.69 12.3141V13.1106H69.6956ZM70.8321 6.55243C70.005 5.68034 68.711 5.23267 66.9838 5.23267C66.0218 5.23267 65.1947 5.32569 64.5196 5.50592C63.8782 5.68034 63.2369 5.90708 62.618 6.19197L63.2819 8.19778C63.7826 7.98848 64.2833 7.81406 64.7728 7.68615C65.3073 7.54662 65.9205 7.47104 66.6069 7.47104C67.5802 7.47104 68.3397 7.70941 68.8629 8.17453C69.3918 8.64546 69.6618 9.33732 69.6618 10.221V10.6338L69.4987 10.5815C69.043 10.4303 68.5591 10.3082 68.064 10.2152C67.5689 10.1222 66.9613 10.0815 66.2524 10.0815C65.5773 10.0815 64.9416 10.1629 64.3621 10.3199C63.7882 10.4769 63.2875 10.721 62.8768 11.0408C62.4661 11.3606 62.1398 11.7675 61.9147 12.2501C61.6841 12.7327 61.5659 13.3082 61.5659 13.971V14.0175C61.5659 14.6164 61.6784 15.1455 61.9035 15.5931C62.1285 16.0466 62.4267 16.4303 62.7924 16.7327C63.1637 17.035 63.5969 17.2734 64.092 17.4303C64.5871 17.5873 65.1216 17.6687 65.6786 17.6687C66.5562 17.6687 67.3045 17.5001 67.9178 17.1745C68.531 16.8431 69.0373 16.4303 69.4312 15.9536L69.6562 15.6803V17.4129H72.1036V10.2792C72.081 8.68034 71.6591 7.43034 70.8321 6.55243Z" fill="#076B9C"/>
<path d="M87.5977 13.1106C87.5977 13.5175 87.5133 13.8896 87.3445 14.2269C87.1814 14.5582 86.9451 14.8489 86.6469 15.0815C86.3487 15.3141 85.9999 15.4943 85.6061 15.6222C85.2122 15.7501 84.7847 15.8141 84.3177 15.8141C83.6482 15.8141 83.0743 15.6513 82.613 15.3257C82.1348 14.9943 81.8929 14.5001 81.8929 13.8722V13.8257C81.8929 13.192 82.1517 12.692 82.6693 12.3257C83.17 11.971 83.8676 11.7908 84.7453 11.7908C85.2798 11.7908 85.7861 11.8373 86.2699 11.9303C86.7482 12.0234 87.1701 12.1455 87.5189 12.285L87.5977 12.3141V13.1106ZM88.7342 6.55243C87.9071 5.68034 86.6131 5.23267 84.8859 5.23267C83.9239 5.23267 83.0968 5.32569 82.4217 5.50592C81.7803 5.68034 81.139 5.90708 80.5201 6.19197L81.184 8.19778C81.6847 7.98848 82.1854 7.81406 82.6749 7.68615C83.2094 7.54662 83.8226 7.47104 84.509 7.47104C85.4823 7.47104 86.2418 7.70941 86.765 8.17453C87.2939 8.64546 87.5639 9.33732 87.5639 10.221V10.6338L87.4008 10.5815C86.9451 10.4303 86.4556 10.3082 85.9661 10.2152C85.471 10.1222 84.8634 10.0815 84.1545 10.0815C83.4794 10.0815 82.8437 10.1629 82.2586 10.3199C81.6847 10.4769 81.184 10.721 80.7733 11.0408C80.3626 11.3606 80.0363 11.7675 79.8112 12.2501C79.5805 12.7327 79.4624 13.3082 79.4624 13.971V14.0175C79.4624 14.6164 79.5749 15.1455 79.8 15.5931C80.025 16.0466 80.3232 16.4303 80.6889 16.7327C81.0602 17.035 81.4934 17.2734 81.9885 17.4303C82.4836 17.5873 83.0181 17.6687 83.5694 17.6687C84.4471 17.6687 85.1954 17.5001 85.8086 17.1745C86.4218 16.8431 86.9282 16.4303 87.322 15.9536L87.5471 15.6803V17.4129H89.9944V10.2792C89.9775 8.68034 89.5612 7.43034 88.7342 6.55243Z" fill="#076B9C"/>
<path d="M57.6389 8.44777C57.3239 8.09312 56.9413 7.81986 56.5194 7.628C55.6642 7.24428 54.6402 7.24428 53.7738 7.628C53.3406 7.81986 52.9524 8.09893 52.6261 8.4594C52.3054 8.81986 52.041 9.2501 51.8497 9.73847C51.6584 10.2327 51.5572 10.785 51.5572 11.3896V11.4361C51.5572 12.0408 51.6528 12.5989 51.8497 13.0989C52.041 13.5989 52.3054 14.035 52.6317 14.3838C52.9581 14.7327 53.3406 15.0117 53.7738 15.2036C54.207 15.3954 54.6684 15.4943 55.1522 15.4943C55.6304 15.4943 56.0918 15.3954 56.5194 15.2036C56.9469 15.0117 57.3239 14.7385 57.6389 14.3954C57.954 14.0524 58.2128 13.6222 58.3985 13.1222C58.5841 12.6222 58.6798 12.0524 58.6798 11.442V11.3954C58.6798 10.7966 58.5841 10.2385 58.3985 9.73847C58.2128 9.23265 57.9596 8.80242 57.6389 8.44777ZM61.1721 11.4361C61.1721 12.4361 61.0202 13.3315 60.722 14.1047C60.4239 14.8722 60.0188 15.5292 59.5124 16.0582C59.0117 16.5815 58.4266 16.9885 57.7796 17.2559C57.1326 17.5234 56.4575 17.6629 55.7711 17.6629C54.8259 17.6629 54.0326 17.4478 53.4138 17.035C52.7836 16.6106 52.2604 16.1164 51.8497 15.5582L51.6247 15.2501V21.128H49.1323V5.4187H51.6247V7.7501L51.8553 7.40707C52.2773 6.77335 52.8118 6.23847 53.4363 5.80824C54.0551 5.38382 54.8428 5.1687 55.7711 5.1687C56.4575 5.1687 57.127 5.30824 57.7683 5.57568C58.4097 5.84312 58.9892 6.2501 59.4899 6.77335C59.9963 7.30242 60.407 7.9594 60.7108 8.72684C61.0202 9.49428 61.1721 10.3954 61.1721 11.3896V11.4361V11.4361Z" fill="#076B9C"/>
<path d="M44.0127 5.16284C43.135 5.16284 42.3755 5.36052 41.7397 5.74424C41.104 6.13377 40.5414 6.65121 40.0744 7.29075L39.9506 7.45935L39.8606 7.27331C39.5568 6.63959 39.118 6.12796 38.5497 5.74424C37.9815 5.36052 37.2783 5.16866 36.4512 5.16866C36.018 5.16866 35.6186 5.2268 35.2641 5.33726C34.9097 5.45354 34.589 5.6047 34.3077 5.80238C34.0264 6.00005 33.7732 6.22098 33.5538 6.45935C33.3344 6.70354 33.1262 6.96517 32.9349 7.24424L32.7043 7.57563V5.42447H30.2119V17.4187H32.7043V10.6745C32.7043 9.6861 32.9518 8.90703 33.43 8.34307C33.9139 7.77912 34.5665 7.48842 35.3598 7.48842C36.1587 7.48842 36.7832 7.76168 37.2276 8.29656C37.6665 8.82563 37.8859 9.59889 37.8859 10.5814V17.4187H40.3782V10.6396C40.3782 9.62214 40.6258 8.83145 41.1152 8.29075C41.6103 7.75005 42.2573 7.47679 43.0337 7.47679C43.827 7.47679 44.4571 7.75005 44.9016 8.28493C45.3404 8.814 45.5598 9.59307 45.5598 10.5931V17.407H48.0578V9.72098C48.0578 8.26168 47.6977 7.12796 46.9832 6.34307C46.2856 5.55819 45.2785 5.16284 44.0127 5.16284Z" fill="#076B9C"/>
<path d="M12.0117 17.2326C11.4884 17.4942 10.9146 17.6919 10.2957 17.8256C9.67684 17.9593 8.97921 18.0291 8.22531 18.0291C7.04946 18.0291 5.94675 17.8082 4.95094 17.3663C3.96075 16.9244 3.08309 16.314 2.3517 15.5523C1.62031 14.7907 1.04082 13.8721 0.624494 12.8314C0.208165 11.7849 0 10.657 0 9.47094V9.42443C0 8.23838 0.208165 7.11629 0.618868 6.08141C1.02957 5.04652 1.60906 4.12792 2.34607 3.34885C3.08309 2.56978 3.972 1.94769 4.97907 1.4942C5.98614 1.04652 7.11698 0.813965 8.34346 0.813965C9.08047 0.813965 9.76123 0.877918 10.3688 1.00583C10.9708 1.13373 11.5334 1.31396 12.0398 1.54071C12.3492 1.68024 12.6474 1.83722 12.9287 2.01164C12.8162 2.2035 12.5968 2.6221 12.383 3.19769C12.2198 3.63373 12.0567 4.23838 11.9779 4.54652C11.6291 4.29652 11.2578 4.06978 10.8864 3.8721C10.1382 3.47676 9.27176 3.27908 8.32096 3.27908C7.52205 3.27908 6.77941 3.44187 6.09866 3.76164C5.42353 4.08141 4.83279 4.52327 4.3377 5.06978C3.8426 5.6221 3.45441 6.27327 3.18435 7.01164C2.9143 7.75001 2.77928 8.54071 2.77928 9.37792V9.42443C2.77928 10.2558 2.9143 11.0582 3.18435 11.8023C3.45441 12.5465 3.8426 13.2093 4.33207 13.7675C4.82717 14.3256 5.4179 14.7733 6.09303 15.093C6.77379 15.4128 7.51643 15.5756 8.31533 15.5756C9.32802 15.5756 10.2169 15.3721 10.954 14.9709C11.3253 14.7675 11.7641 14.4419 12.1073 14.1686C12.1973 14.4477 12.3886 15.0116 12.6361 15.5407C12.8218 15.9419 13.0806 16.3256 13.21 16.5116C12.8387 16.7791 12.4336 17.0233 12.0117 17.2326Z" fill="#076B9C"/>
<path d="M27.804 6.45939L26.6957 8.0873C27.3314 9.15125 27.669 10.3722 27.669 11.628C27.669 15.3547 24.7322 18.3838 21.1203 18.3838C17.5083 18.3838 14.5659 15.3547 14.5659 11.628C14.5659 7.90125 17.5027 4.87218 21.1203 4.87218C22.2511 4.87218 23.3651 5.17451 24.3384 5.74428L25.548 4.31986C24.2202 3.46521 22.6899 3.01172 21.1146 3.01172C16.5069 3.01172 12.7543 6.878 12.7543 11.628C12.7543 13.5931 13.4125 15.5175 14.6053 17.0408L14.6278 17.064L14.6334 17.1687L13.03 18.8199L12.5686 18.4187L6.85254 24.1571L8.4616 26.0001L14.2058 20.2733L13.8176 19.8373L15.5842 18.0931L15.6517 18.1513C17.1708 19.5001 19.1061 20.2443 21.1146 20.2443C25.7224 20.2443 29.4693 16.378 29.4693 11.628C29.475 9.74428 28.8955 7.95939 27.804 6.45939Z" fill="#076B9C"/>
<path d="M16.3945 9.01172C16.3945 9.01172 19.5226 12.2385 21.1261 16.3373C21.1261 16.3373 26.6396 4.97103 30.5441 1.6687C30.5441 1.6687 27.4048 2.82568 21.1261 10.8838C21.1261 10.8838 18.313 9.01172 16.3945 9.01172Z" fill="#77AA43"/>
<path d="M95.9245 17.4826C94.7374 17.4826 93.7472 17.2384 92.954 16.7442C92.1607 16.25 91.5081 15.6395 90.9961 14.9128L92.7796 13.0232C93.2353 13.6163 93.6966 14.0698 94.1748 14.4012C94.653 14.7267 95.2213 14.8895 95.8795 14.8895C96.6109 14.8895 97.2017 14.6337 97.6517 14.1279C98.0962 13.6221 98.3212 12.8372 98.3212 11.7733V1.34302H101.095V11.843C101.095 12.7965 100.971 13.6221 100.724 14.3198C100.476 15.0174 100.122 15.5988 99.6659 16.0698C99.2102 16.5407 98.6701 16.8895 98.0399 17.1279C97.4042 17.3663 96.7009 17.4826 95.9245 17.4826Z" fill="#77AA43"/>
<path d="M109.995 17.2558V15.7791C109.601 16.2674 109.095 16.6744 108.476 17.0058C107.863 17.3372 107.115 17.5058 106.231 17.5058C105.674 17.5058 105.146 17.4244 104.65 17.2674C104.15 17.1105 103.716 16.8721 103.34 16.564C102.963 16.2558 102.664 15.8663 102.439 15.407C102.214 14.9477 102.096 14.4128 102.096 13.8023V13.7558C102.096 13.0872 102.214 12.5116 102.451 12.0174C102.687 11.5233 103.013 11.1163 103.43 10.7907C103.846 10.4651 104.347 10.2209 104.926 10.064C105.506 9.90116 106.13 9.82558 106.805 9.82558C107.508 9.82558 108.105 9.87209 108.6 9.9593C109.089 10.0523 109.562 10.1744 110.018 10.3256V10.0988C110.018 9.26744 109.77 8.62791 109.281 8.18605C108.791 7.74419 108.082 7.52907 107.16 7.52907C106.501 7.52907 105.911 7.59884 105.399 7.73256C104.887 7.87209 104.363 8.05233 103.835 8.27907L103.109 6.07558C103.756 5.77326 104.414 5.52907 105.089 5.34884C105.764 5.1686 106.58 5.07558 107.531 5.07558C109.264 5.07558 110.547 5.51744 111.379 6.40698C112.212 7.29651 112.634 8.5407 112.634 10.1453V17.2616H109.995V17.2558ZM110.063 12.2326C109.725 12.0988 109.326 11.9826 108.864 11.8895C108.403 11.7965 107.914 11.7558 107.402 11.7558C106.563 11.7558 105.911 11.9244 105.444 12.2558C104.977 12.5872 104.74 13.0465 104.74 13.6221V13.6686C104.74 14.2442 104.954 14.686 105.387 14.9884C105.821 15.2907 106.35 15.4419 106.985 15.4419C107.424 15.4419 107.835 15.3837 108.206 15.2616C108.577 15.1395 108.904 14.9709 109.185 14.75C109.461 14.5291 109.68 14.2674 109.832 13.9535C109.984 13.6395 110.063 13.2965 110.063 12.9186V12.2326V12.2326ZM108.724 0L111.143 1.11628L108.459 3.73256H106.389L108.724 0Z" fill="#77AA43"/>
<path d="M115.807 12.1513H116.944V13.0001C117.124 12.7327 117.343 12.5059 117.613 12.3199C117.878 12.1397 118.209 12.0466 118.603 12.0466C118.896 12.0466 119.177 12.1048 119.447 12.2211C119.717 12.3373 119.959 12.5059 120.173 12.7327C120.387 12.9536 120.556 13.2327 120.691 13.5583C120.82 13.8838 120.887 14.2617 120.887 14.6804V14.6978C120.887 15.1222 120.826 15.4943 120.696 15.8199C120.572 16.1455 120.398 16.4245 120.184 16.6455C119.97 16.8664 119.729 17.0408 119.453 17.1571C119.177 17.2734 118.896 17.3315 118.603 17.3315C118.204 17.3315 117.866 17.2443 117.602 17.0641C117.337 16.8838 117.118 16.6745 116.944 16.442V18.7676H115.807V12.1513V12.1513ZM118.344 16.3199C118.536 16.3199 118.716 16.2792 118.89 16.2036C119.059 16.128 119.211 16.0176 119.335 15.8838C119.464 15.7443 119.565 15.5757 119.638 15.3722C119.712 15.1687 119.751 14.942 119.751 14.692V14.6745C119.751 14.4304 119.712 14.2094 119.638 14.0059C119.565 13.8024 119.464 13.6338 119.335 13.4943C119.211 13.3548 119.059 13.2443 118.89 13.1687C118.721 13.0931 118.541 13.0524 118.344 13.0524C118.148 13.0524 117.968 13.0873 117.799 13.1687C117.624 13.2443 117.472 13.3548 117.343 13.5001C117.214 13.6455 117.107 13.8141 117.034 14.0117C116.955 14.2094 116.915 14.4304 116.915 14.6745V14.692C116.915 14.9362 116.955 15.1571 117.034 15.3606C117.112 15.5641 117.214 15.7327 117.343 15.8722C117.472 16.0117 117.624 16.1222 117.799 16.1978C117.968 16.2792 118.153 16.3199 118.344 16.3199Z" fill="#77AA43"/>
<path d="M123.965 17.3082C123.757 17.3082 123.571 17.2849 123.397 17.2326C123.222 17.1803 123.07 17.0989 122.941 16.9826C122.812 16.8663 122.716 16.7152 122.643 16.5233C122.575 16.3373 122.541 16.0989 122.541 15.8198V13.1512H121.917V12.1512H122.541V10.7559H123.678V12.1454H125V13.1454H123.678V15.6338C123.678 15.8605 123.729 16.0175 123.835 16.1221C123.942 16.221 124.089 16.2733 124.28 16.2733C124.522 16.2733 124.753 16.2152 124.978 16.0989V17.0524C124.837 17.1338 124.685 17.1977 124.522 17.2442C124.359 17.2849 124.173 17.3082 123.965 17.3082Z" fill="#77AA43"/>
</g>
<defs>
<clipPath id="clip0_975_12409">
<rect width="125" height="26" fill="white"/>
</clipPath>
</defs>
</svg>
