<?xml version="1.0" encoding="utf-8"?>
<!-- Generator: Adobe Illustrator 19.0.0, SVG Export Plug-In . SVG Version: 6.00 Build 0)  -->
<svg version="1.1" id="Layer_1" xmlns="http://www.w3.org/2000/svg" xmlns:xlink="http://www.w3.org/1999/xlink" x="0px" y="0px"
	 viewBox="0 0 729.1 364.1" style="enable-background:new 0 0 729.1 364.1;" xml:space="preserve">
<style type="text/css">
	.st0{fill:none;stroke:#2D4654;stroke-width:3;stroke-linecap:round;stroke-linejoin:round;stroke-miterlimit:10;}
	.st1{fill:none;stroke:#2D4654;stroke-width:2;stroke-linecap:round;stroke-linejoin:round;stroke-miterlimit:10;}
	.st2{fill:none;stroke:#2D4654;stroke-width:3;stroke-linejoin:round;stroke-miterlimit:10;}
</style>
<g id="XMLID_1_">
	<g id="XMLID_2_">
		<polyline id="XMLID_4_" class="st0" points="104.9,273.1 78.9,258.1 53,243.1 27,258.1 1,273.1 27,288.1 53,303.1 78.9,288.1 
			104.9,273.1 		"/>
		<line id="XMLID_9_" class="st1" x1="78.9" y1="288.1" x2="27" y2="258.1"/>
		<line id="XMLID_11_" class="st1" x1="66" y1="295.6" x2="14" y2="265.6"/>
		<line id="XMLID_10_" class="st1" x1="91.9" y1="280.6" x2="40" y2="250.6"/>
	</g>
	<g id="XMLID_39_">
		<polyline id="XMLID_43_" class="st0" points="52,364.1 52,333.1 52,303.1 78,288.1 104,273.1 104,303.1 104.7,333.1 52.6,363.8 		
			"/>
		<line id="XMLID_42_" class="st1" x1="78.5" y1="348.1" x2="78.5" y2="288.1"/>
		<line id="XMLID_41_" class="st1" x1="91.5" y1="341.1" x2="91.5" y2="281.1"/>
		<line id="XMLID_40_" class="st1" x1="65.5" y1="356.1" x2="65.5" y2="296.1"/>
	</g>
	<g id="XMLID_44_">
		<polyline id="XMLID_48_" class="st0" points="156,364.1 156,333.1 156,303.1 130,288.1 104,273.1 104,303.1 104.1,333.1 
			155.8,363.8 		"/>
		<line id="XMLID_47_" class="st1" x1="129.5" y1="348.1" x2="129.5" y2="288.1"/>
		<line id="XMLID_46_" class="st1" x1="116.5" y1="341.1" x2="116.5" y2="281.1"/>
		<line id="XMLID_45_" class="st1" x1="142.5" y1="356.1" x2="142.5" y2="296.1"/>
	</g>
	<g id="XMLID_109_">
		<line id="XMLID_483_" class="st0" x1="0.3" y1="333.1" x2="52.2" y2="363.6"/>
		<polyline id="XMLID_183_" class="st0" points="52,364.1 52,333.1 52,303.1 26.3,288.1 0.1,273.3 		"/>
		<line id="XMLID_112_" class="st1" x1="25.5" y1="348.1" x2="25.5" y2="288.1"/>
		<line id="XMLID_111_" class="st1" x1="12.5" y1="341.1" x2="12.5" y2="281.1"/>
		<line id="XMLID_110_" class="st1" x1="38.5" y1="356.1" x2="38.5" y2="296.1"/>
	</g>
	<g id="XMLID_54_">
		<polyline id="XMLID_58_" class="st0" points="156,364.1 156,333.1 156,303.1 182,288.1 208,273.1 208,303.1 208.7,333.1 
			156.6,363.8 		"/>
		<line id="XMLID_57_" class="st1" x1="182.5" y1="348.1" x2="182.5" y2="288.1"/>
		<line id="XMLID_56_" class="st1" x1="195.5" y1="341.1" x2="195.5" y2="281.1"/>
		<line id="XMLID_55_" class="st1" x1="169.5" y1="356.1" x2="169.5" y2="296.1"/>
	</g>
	<g id="XMLID_49_">
		<polyline id="XMLID_53_" class="st0" points="260,364.1 260,333.1 260,303.1 234,288.1 208,273.1 208,303.1 208.1,333.1 
			259.8,363.8 		"/>
		<line id="XMLID_52_" class="st1" x1="233.5" y1="348.1" x2="233.5" y2="288.1"/>
		<line id="XMLID_51_" class="st1" x1="220.5" y1="341.1" x2="220.5" y2="281.1"/>
		<line id="XMLID_50_" class="st1" x1="246.5" y1="356.1" x2="246.5" y2="296.1"/>
	</g>
	<g id="XMLID_64_">
		<polyline id="XMLID_68_" class="st0" points="260,364.1 260,333.1 260,303.1 286,288.1 312,273.1 312,303.1 312.7,333.1 
			260.6,363.8 		"/>
		<line id="XMLID_67_" class="st1" x1="286.5" y1="348.1" x2="286.5" y2="288.1"/>
		<line id="XMLID_66_" class="st1" x1="299.5" y1="341.1" x2="299.5" y2="281.1"/>
		<line id="XMLID_65_" class="st1" x1="273.5" y1="356.1" x2="273.5" y2="296.1"/>
	</g>
	<g id="XMLID_59_">
		<polyline id="XMLID_63_" class="st0" points="364,364.1 364,333.1 364,303.1 338,288.1 312,273.1 312,303.1 312.1,333.1 
			363.8,363.8 		"/>
		<line id="XMLID_62_" class="st1" x1="337.5" y1="348.1" x2="337.5" y2="288.1"/>
		<line id="XMLID_61_" class="st1" x1="324.5" y1="341.1" x2="324.5" y2="281.1"/>
		<line id="XMLID_60_" class="st1" x1="350.5" y1="356.1" x2="350.5" y2="296.1"/>
	</g>
	<g id="XMLID_74_">
		<polyline id="XMLID_78_" class="st0" points="364,364.1 364,333.1 364,303.1 390,288.1 416,273.1 416,303.1 416.7,333.1 
			364.6,363.8 		"/>
		<line id="XMLID_77_" class="st1" x1="390.5" y1="348.1" x2="390.5" y2="288.1"/>
		<line id="XMLID_76_" class="st1" x1="403.5" y1="341.1" x2="403.5" y2="281.1"/>
		<line id="XMLID_75_" class="st1" x1="377.5" y1="356.1" x2="377.5" y2="296.1"/>
	</g>
	<g id="XMLID_69_">
		<polyline id="XMLID_73_" class="st0" points="468,364.1 468,333.1 468,303.1 442,288.1 416,273.1 416,303.1 416.1,333.1 
			467.8,363.8 		"/>
		<line id="XMLID_72_" class="st1" x1="441.5" y1="348.1" x2="441.5" y2="288.1"/>
		<line id="XMLID_71_" class="st1" x1="428.5" y1="341.1" x2="428.5" y2="281.1"/>
		<line id="XMLID_70_" class="st1" x1="454.5" y1="356.1" x2="454.5" y2="296.1"/>
	</g>
	<g id="XMLID_84_">
		<polyline id="XMLID_88_" class="st0" points="468,364.1 468,333.1 468,303.1 494,288.1 520,273.1 520,303.1 520.7,333.1 
			468.6,363.8 		"/>
		<line id="XMLID_87_" class="st1" x1="494.5" y1="348.1" x2="494.5" y2="288.1"/>
		<line id="XMLID_86_" class="st1" x1="507.5" y1="341.1" x2="507.5" y2="281.1"/>
		<line id="XMLID_85_" class="st1" x1="481.5" y1="356.1" x2="481.5" y2="296.1"/>
	</g>
	<g id="XMLID_79_">
		<polyline id="XMLID_83_" class="st0" points="572,364.1 572,333.1 572,303.1 546,288.1 520,273.1 520,303.1 520.1,333.1 
			571.8,363.8 		"/>
		<line id="XMLID_82_" class="st1" x1="545.5" y1="348.1" x2="545.5" y2="288.1"/>
		<line id="XMLID_81_" class="st1" x1="532.5" y1="341.1" x2="532.5" y2="281.1"/>
		<line id="XMLID_80_" class="st1" x1="558.5" y1="356.1" x2="558.5" y2="296.1"/>
	</g>
	<g id="XMLID_94_">
		<polyline id="XMLID_98_" class="st0" points="572,364.1 572,333.1 572,303.1 598,288.1 624,273.1 624,303.1 624.7,333.1 
			572.6,363.8 		"/>
		<line id="XMLID_97_" class="st1" x1="598.5" y1="348.1" x2="598.5" y2="288.1"/>
		<line id="XMLID_96_" class="st1" x1="611.5" y1="341.1" x2="611.5" y2="281.1"/>
		<line id="XMLID_95_" class="st1" x1="585.5" y1="356.1" x2="585.5" y2="296.1"/>
	</g>
	<g id="XMLID_89_">
		<polyline id="XMLID_93_" class="st0" points="676,364.1 676,333.1 676,303.1 650,288.1 624,273.1 624,303.1 624.1,333.1 
			675.8,363.8 		"/>
		<line id="XMLID_92_" class="st1" x1="649.5" y1="348.1" x2="649.5" y2="288.1"/>
		<line id="XMLID_91_" class="st1" x1="636.5" y1="341.1" x2="636.5" y2="281.1"/>
		<line id="XMLID_90_" class="st1" x1="662.5" y1="356.1" x2="662.5" y2="296.1"/>
	</g>
	<g id="XMLID_104_">
		<line id="XMLID_478_" class="st0" x1="728.9" y1="333.1" x2="676.9" y2="363.6"/>
		<polyline id="XMLID_118_" class="st0" points="676,364.1 676,333.1 676,303.1 702.3,288.1 728.1,273.3 		"/>
		<line id="XMLID_107_" class="st1" x1="702.5" y1="348.1" x2="702.5" y2="288.1"/>
		<line id="XMLID_106_" class="st1" x1="715.5" y1="341.1" x2="715.5" y2="281.1"/>
		<line id="XMLID_105_" class="st1" x1="689.5" y1="356.1" x2="689.5" y2="296.1"/>
	</g>
	<g id="XMLID_174_">
		<polyline id="XMLID_178_" class="st0" points="104,273.1 104,242.1 104,212.1 130,197.1 156,182.1 156,212.1 156.7,242.1 
			104.6,272.8 		"/>
		<line id="XMLID_177_" class="st1" x1="130.5" y1="257.1" x2="130.5" y2="197.1"/>
		<line id="XMLID_176_" class="st1" x1="143.5" y1="250.1" x2="143.5" y2="190.1"/>
		<line id="XMLID_175_" class="st1" x1="117.5" y1="265.1" x2="117.5" y2="205.1"/>
	</g>
	<g id="XMLID_179_">
		<polyline id="XMLID_482_" class="st0" points="0.5,212.1 26.3,197.1 52,182.1 52,212.1 52.7,242.1 0.8,272.6 		"/>
		<path id="XMLID_441_" class="st0" d="M0.5,272.6"/>
		<line id="XMLID_182_" class="st1" x1="26.5" y1="257.1" x2="26.5" y2="197.1"/>
		<line id="XMLID_181_" class="st1" x1="39.5" y1="250.1" x2="39.5" y2="190.1"/>
		<line id="XMLID_180_" class="st1" x1="13.5" y1="265.1" x2="13.5" y2="205.1"/>
	</g>
	<g id="XMLID_169_">
		<polyline id="XMLID_173_" class="st0" points="208,273.1 208,242.1 208,212.1 182,197.1 156,182.1 156,212.1 156.1,242.1 
			207.8,272.8 		"/>
		<line id="XMLID_172_" class="st1" x1="181.5" y1="257.1" x2="181.5" y2="197.1"/>
		<line id="XMLID_171_" class="st1" x1="168.5" y1="250.1" x2="168.5" y2="190.1"/>
		<line id="XMLID_170_" class="st1" x1="194.5" y1="265.1" x2="194.5" y2="205.1"/>
	</g>
	<g id="XMLID_164_">
		<polyline id="XMLID_168_" class="st0" points="104,273.1 104,242.1 104,212.1 78,197.1 52,182.1 52,212.1 52.1,242.1 103.8,272.8 
					"/>
		<line id="XMLID_167_" class="st1" x1="77.5" y1="257.1" x2="77.5" y2="197.1"/>
		<line id="XMLID_166_" class="st1" x1="64.5" y1="250.1" x2="64.5" y2="190.1"/>
		<line id="XMLID_165_" class="st1" x1="90.5" y1="265.1" x2="90.5" y2="205.1"/>
	</g>
	<g id="XMLID_159_">
		<polyline id="XMLID_163_" class="st0" points="208,273.1 208,242.1 208,212.1 234,197.1 260,182.1 260,212.1 260.7,242.1 
			208.6,272.8 		"/>
		<line id="XMLID_162_" class="st1" x1="234.5" y1="257.1" x2="234.5" y2="197.1"/>
		<line id="XMLID_161_" class="st1" x1="247.5" y1="250.1" x2="247.5" y2="190.1"/>
		<line id="XMLID_160_" class="st1" x1="221.5" y1="265.1" x2="221.5" y2="205.1"/>
	</g>
	<g id="XMLID_154_">
		<polyline id="XMLID_158_" class="st0" points="312,273.1 312,242.1 312,212.1 286,197.1 260,182.1 260,212.1 260.1,242.1 
			311.8,272.8 		"/>
		<line id="XMLID_157_" class="st1" x1="285.5" y1="257.1" x2="285.5" y2="197.1"/>
		<line id="XMLID_156_" class="st1" x1="272.5" y1="250.1" x2="272.5" y2="190.1"/>
		<line id="XMLID_155_" class="st1" x1="298.5" y1="265.1" x2="298.5" y2="205.1"/>
	</g>
	<g id="XMLID_149_">
		<polyline id="XMLID_153_" class="st0" points="312,273.1 312,242.1 312,212.1 338,197.1 364,182.1 364,212.1 364.7,242.1 
			312.6,272.8 		"/>
		<line id="XMLID_152_" class="st1" x1="338.5" y1="257.1" x2="338.5" y2="197.1"/>
		<line id="XMLID_151_" class="st1" x1="351.5" y1="250.1" x2="351.5" y2="190.1"/>
		<line id="XMLID_150_" class="st1" x1="325.5" y1="265.1" x2="325.5" y2="205.1"/>
	</g>
	<g id="XMLID_144_">
		<polyline id="XMLID_148_" class="st0" points="416,273.1 416,242.1 416,212.1 390,197.1 364,182.1 364,212.1 364.1,242.1 
			415.8,272.8 		"/>
		<line id="XMLID_147_" class="st1" x1="389.5" y1="257.1" x2="389.5" y2="197.1"/>
		<line id="XMLID_146_" class="st1" x1="376.5" y1="250.1" x2="376.5" y2="190.1"/>
		<line id="XMLID_145_" class="st1" x1="402.5" y1="265.1" x2="402.5" y2="205.1"/>
	</g>
	<g id="XMLID_139_">
		<polyline id="XMLID_143_" class="st0" points="416,273.1 416,242.1 416,212.1 442,197.1 468,182.1 468,212.1 468.7,242.1 
			416.6,272.8 		"/>
		<line id="XMLID_142_" class="st1" x1="442.5" y1="257.1" x2="442.5" y2="197.1"/>
		<line id="XMLID_141_" class="st1" x1="455.5" y1="250.1" x2="455.5" y2="190.1"/>
		<line id="XMLID_140_" class="st1" x1="429.5" y1="265.1" x2="429.5" y2="205.1"/>
	</g>
	<g id="XMLID_134_">
		<polyline id="XMLID_138_" class="st0" points="520,273.1 520,242.1 520,212.1 494,197.1 468,182.1 468,212.1 468.1,242.1 
			519.8,272.8 		"/>
		<line id="XMLID_137_" class="st1" x1="493.5" y1="257.1" x2="493.5" y2="197.1"/>
		<line id="XMLID_136_" class="st1" x1="480.5" y1="250.1" x2="480.5" y2="190.1"/>
		<line id="XMLID_135_" class="st1" x1="506.5" y1="265.1" x2="506.5" y2="205.1"/>
	</g>
	<g id="XMLID_129_">
		<polyline id="XMLID_133_" class="st0" points="520,273.1 520,242.1 520,212.1 546,197.1 572,182.1 572,212.1 572.7,242.1 
			520.6,272.8 		"/>
		<line id="XMLID_132_" class="st1" x1="546.5" y1="257.1" x2="546.5" y2="197.1"/>
		<line id="XMLID_131_" class="st1" x1="559.5" y1="250.1" x2="559.5" y2="190.1"/>
		<line id="XMLID_130_" class="st1" x1="533.5" y1="265.1" x2="533.5" y2="205.1"/>
	</g>
	<g id="XMLID_124_">
		<polyline id="XMLID_128_" class="st0" points="624,273.1 624,242.1 624,212.1 598,197.1 572,182.1 572,212.1 572.1,242.1 
			623.8,272.8 		"/>
		<line id="XMLID_127_" class="st1" x1="597.5" y1="257.1" x2="597.5" y2="197.1"/>
		<line id="XMLID_126_" class="st1" x1="584.5" y1="250.1" x2="584.5" y2="190.1"/>
		<line id="XMLID_125_" class="st1" x1="610.5" y1="265.1" x2="610.5" y2="205.1"/>
	</g>
	<g id="XMLID_119_">
		<polyline id="XMLID_123_" class="st0" points="624,273.1 624,242.1 624,212.1 650,197.1 676,182.1 676,212.1 676.7,242.1 
			624.6,272.8 		"/>
		<line id="XMLID_122_" class="st1" x1="650.5" y1="257.1" x2="650.5" y2="197.1"/>
		<line id="XMLID_121_" class="st1" x1="663.5" y1="250.1" x2="663.5" y2="190.1"/>
		<line id="XMLID_120_" class="st1" x1="637.5" y1="265.1" x2="637.5" y2="205.1"/>
	</g>
	<g id="XMLID_114_">
		<polyline id="XMLID_472_" class="st0" points="728.5,212.1 702.3,197.1 676,182.1 676,212.1 676.1,242.1 728.1,272.6 		"/>
		<path id="XMLID_216_" class="st0" d="M728.5,272.6"/>
		<line id="XMLID_117_" class="st1" x1="701.5" y1="257.1" x2="701.5" y2="197.1"/>
		<line id="XMLID_116_" class="st1" x1="688.5" y1="250.1" x2="688.5" y2="190.1"/>
		<line id="XMLID_115_" class="st1" x1="714.5" y1="265.1" x2="714.5" y2="205.1"/>
	</g>
	<g id="XMLID_6_">
		<polyline id="XMLID_13_" class="st0" points="208.9,273.1 182.9,258.1 157,243.1 131,258.1 105,273.1 131,288.1 157,303.1 
			182.9,288.1 208.9,273.1 		"/>
		<line id="XMLID_12_" class="st1" x1="182.9" y1="288.1" x2="131" y2="258.1"/>
		<line id="XMLID_8_" class="st1" x1="170" y1="295.6" x2="118" y2="265.6"/>
		<line id="XMLID_7_" class="st1" x1="195.9" y1="280.6" x2="144" y2="250.6"/>
	</g>
	<g id="XMLID_14_">
		<polyline id="XMLID_18_" class="st0" points="312.9,273.1 286.9,258.1 261,243.1 235,258.1 209,273.1 235,288.1 261,303.1 
			286.9,288.1 312.9,273.1 		"/>
		<line id="XMLID_17_" class="st1" x1="286.9" y1="288.1" x2="235" y2="258.1"/>
		<line id="XMLID_16_" class="st1" x1="274" y1="295.6" x2="222" y2="265.6"/>
		<line id="XMLID_15_" class="st1" x1="299.9" y1="280.6" x2="248" y2="250.6"/>
	</g>
	<g id="XMLID_19_">
		<polyline id="XMLID_23_" class="st0" points="416.9,273.1 390.9,258.1 365,243.1 339,258.1 313,273.1 339,288.1 365,303.1 
			390.9,288.1 416.9,273.1 		"/>
		<line id="XMLID_22_" class="st1" x1="390.9" y1="288.1" x2="339" y2="258.1"/>
		<line id="XMLID_21_" class="st1" x1="378" y1="295.6" x2="326" y2="265.6"/>
		<line id="XMLID_20_" class="st1" x1="403.9" y1="280.6" x2="352" y2="250.6"/>
	</g>
	<g id="XMLID_24_">
		<polyline id="XMLID_28_" class="st0" points="520.9,273.1 494.9,258.1 469,243.1 443,258.1 417,273.1 443,288.1 469,303.1 
			494.9,288.1 520.9,273.1 		"/>
		<line id="XMLID_27_" class="st1" x1="494.9" y1="288.1" x2="443" y2="258.1"/>
		<line id="XMLID_26_" class="st1" x1="482" y1="295.6" x2="430" y2="265.6"/>
		<line id="XMLID_25_" class="st1" x1="507.9" y1="280.6" x2="456" y2="250.6"/>
	</g>
	<g id="XMLID_29_">
		<polyline id="XMLID_33_" class="st0" points="624.9,273.1 598.9,258.1 573,243.1 547,258.1 521,273.1 547,288.1 573,303.1 
			598.9,288.1 624.9,273.1 		"/>
		<line id="XMLID_32_" class="st1" x1="598.9" y1="288.1" x2="547" y2="258.1"/>
		<line id="XMLID_31_" class="st1" x1="586" y1="295.6" x2="534" y2="265.6"/>
		<line id="XMLID_30_" class="st1" x1="611.9" y1="280.6" x2="560" y2="250.6"/>
	</g>
	<g id="XMLID_34_">
		<polyline id="XMLID_38_" class="st0" points="728.9,273.1 702.9,258.1 677,243.1 651,258.1 625,273.1 651,288.1 677,303.1 
			702.9,288.1 728.9,273.1 		"/>
		<line id="XMLID_37_" class="st1" x1="702.9" y1="288.1" x2="651" y2="258.1"/>
		<line id="XMLID_36_" class="st1" x1="690" y1="295.6" x2="638" y2="265.6"/>
		<line id="XMLID_35_" class="st1" x1="715.9" y1="280.6" x2="664" y2="250.6"/>
	</g>
	<g id="XMLID_202_">
		<path id="XMLID_486_" class="st0" d="M157,364.1"/>
		<polyline id="XMLID_473_" class="st0" points="157,364.1 131,349.1 105,334.1 79,349.1 53,364.1 		"/>
		<line id="XMLID_475_" class="st1" x1="105" y1="364.1" x2="79" y2="349.1"/>
		<line id="XMLID_474_" class="st1" x1="79" y1="364.1" x2="66" y2="356.6"/>
		<line id="XMLID_434_" class="st1" x1="130.9" y1="364.1" x2="92" y2="341.6"/>
	</g>
	<g id="XMLID_5_">
		<path id="XMLID_487_" class="st0" d="M261,364.1"/>
		<polyline id="XMLID_206_" class="st0" points="261,364.1 235,349.1 209,334.1 183,349.1 157,364.1 		"/>
		<line id="XMLID_101_" class="st1" x1="209" y1="364.1" x2="183" y2="349.1"/>
		<line id="XMLID_100_" class="st1" x1="183" y1="364.1" x2="170" y2="356.6"/>
		<line id="XMLID_99_" class="st1" x1="234.9" y1="364.1" x2="196" y2="341.6"/>
	</g>
	<g id="XMLID_103_">
		<path id="XMLID_488_" class="st0" d="M365,364.1"/>
		<polyline id="XMLID_102_" class="st0" points="365,364.1 339,349.1 313,334.1 287,349.1 261,364.1 		"/>
		<line id="XMLID_186_" class="st1" x1="313" y1="364.1" x2="287" y2="349.1"/>
		<line id="XMLID_185_" class="st1" x1="287" y1="364.1" x2="274" y2="356.6"/>
		<line id="XMLID_184_" class="st1" x1="338.9" y1="364.1" x2="300" y2="341.6"/>
	</g>
	<g id="XMLID_188_">
		<path id="XMLID_489_" class="st0" d="M469,364.1"/>
		<polyline id="XMLID_187_" class="st0" points="469,364.1 443,349.1 417,334.1 391,349.1 365,364.1 		"/>
		<line id="XMLID_191_" class="st1" x1="417" y1="364.1" x2="391" y2="349.1"/>
		<line id="XMLID_190_" class="st1" x1="391" y1="364.1" x2="378" y2="356.6"/>
		<line id="XMLID_189_" class="st1" x1="442.9" y1="364.1" x2="404" y2="341.6"/>
	</g>
	<g id="XMLID_193_">
		<path id="XMLID_490_" class="st0" d="M573,364.1"/>
		<polyline id="XMLID_192_" class="st0" points="573,364.1 547,349.1 521,334.1 495,349.1 469,364.1 		"/>
		<line id="XMLID_196_" class="st1" x1="521" y1="364.1" x2="495" y2="349.1"/>
		<line id="XMLID_195_" class="st1" x1="495" y1="364.1" x2="482" y2="356.6"/>
		<line id="XMLID_194_" class="st1" x1="546.9" y1="364.1" x2="508" y2="341.6"/>
	</g>
	<g id="XMLID_198_">
		<path id="XMLID_491_" class="st0" d="M677,364.1"/>
		<polyline id="XMLID_197_" class="st0" points="677,364.1 651,349.1 625,334.1 599,349.1 573,364.1 		"/>
		<line id="XMLID_201_" class="st1" x1="625" y1="364.1" x2="599" y2="349.1"/>
		<line id="XMLID_200_" class="st1" x1="599" y1="364.1" x2="586" y2="356.6"/>
		<line id="XMLID_199_" class="st1" x1="650.9" y1="364.1" x2="612" y2="341.6"/>
	</g>
	<g id="XMLID_427_">
		<polyline id="XMLID_431_" class="st0" points="104.9,91.1 78.9,76.1 53,61.1 27,76.1 1,91.1 27,106.1 53,121.1 78.9,106.1 
			104.9,91.1 		"/>
		<line id="XMLID_430_" class="st1" x1="78.9" y1="106.1" x2="27" y2="76.1"/>
		<line id="XMLID_429_" class="st1" x1="66" y1="113.6" x2="14" y2="83.6"/>
		<line id="XMLID_428_" class="st1" x1="91.9" y1="98.6" x2="40" y2="68.6"/>
	</g>
	<g id="XMLID_422_">
		<polyline id="XMLID_426_" class="st0" points="52,182.1 52,151.1 52,121.1 78,106.1 104,91.1 104,121.1 104.7,151.1 52.6,181.8 		
			"/>
		<line id="XMLID_425_" class="st1" x1="78.5" y1="166.1" x2="78.5" y2="106.1"/>
		<line id="XMLID_424_" class="st1" x1="91.5" y1="159.1" x2="91.5" y2="99.1"/>
		<line id="XMLID_423_" class="st1" x1="65.5" y1="174.1" x2="65.5" y2="114.1"/>
	</g>
	<g id="XMLID_417_">
		<polyline id="XMLID_421_" class="st0" points="156,182.1 156,151.1 156,121.1 130,106.1 104,91.1 104,121.1 104.1,151.1 
			155.8,181.8 		"/>
		<line id="XMLID_420_" class="st1" x1="129.5" y1="166.1" x2="129.5" y2="106.1"/>
		<line id="XMLID_419_" class="st1" x1="116.5" y1="159.1" x2="116.5" y2="99.1"/>
		<line id="XMLID_418_" class="st1" x1="142.5" y1="174.1" x2="142.5" y2="114.1"/>
	</g>
	<g id="XMLID_412_">
		<line id="XMLID_481_" class="st0" x1="0.3" y1="151.1" x2="52.2" y2="181.6"/>
		<polyline id="XMLID_254_" class="st0" points="52,182.1 52,151.1 52,121.1 26.3,106.1 0.1,91.3 		"/>
		<line id="XMLID_415_" class="st1" x1="25.5" y1="166.1" x2="25.5" y2="106.1"/>
		<line id="XMLID_414_" class="st1" x1="12.5" y1="159.1" x2="12.5" y2="99.1"/>
		<line id="XMLID_413_" class="st1" x1="38.5" y1="174.1" x2="38.5" y2="114.1"/>
	</g>
	<g id="XMLID_407_">
		<polyline id="XMLID_411_" class="st0" points="156,182.1 156,151.1 156,121.1 182,106.1 208,91.1 208,121.1 208.7,151.1 
			156.6,181.8 		"/>
		<line id="XMLID_410_" class="st1" x1="182.5" y1="166.1" x2="182.5" y2="106.1"/>
		<line id="XMLID_409_" class="st1" x1="195.5" y1="159.1" x2="195.5" y2="99.1"/>
		<line id="XMLID_408_" class="st1" x1="169.5" y1="174.1" x2="169.5" y2="114.1"/>
	</g>
	<g id="XMLID_402_">
		<polyline id="XMLID_406_" class="st0" points="260,182.1 260,151.1 260,121.1 234,106.1 208,91.1 208,121.1 208.1,151.1 
			259.8,181.8 		"/>
		<line id="XMLID_405_" class="st1" x1="233.5" y1="166.1" x2="233.5" y2="106.1"/>
		<line id="XMLID_404_" class="st1" x1="220.5" y1="159.1" x2="220.5" y2="99.1"/>
		<line id="XMLID_403_" class="st1" x1="246.5" y1="174.1" x2="246.5" y2="114.1"/>
	</g>
	<g id="XMLID_397_">
		<polyline id="XMLID_401_" class="st0" points="260,182.1 260,151.1 260,121.1 286,106.1 312,91.1 312,121.1 312.7,151.1 
			260.6,181.8 		"/>
		<line id="XMLID_400_" class="st1" x1="286.5" y1="166.1" x2="286.5" y2="106.1"/>
		<line id="XMLID_399_" class="st1" x1="299.5" y1="159.1" x2="299.5" y2="99.1"/>
		<line id="XMLID_398_" class="st1" x1="273.5" y1="174.1" x2="273.5" y2="114.1"/>
	</g>
	<g id="XMLID_392_">
		<polyline id="XMLID_396_" class="st0" points="364,182.1 364,151.1 364,121.1 338,106.1 312,91.1 312,121.1 312.1,151.1 
			363.8,181.8 		"/>
		<line id="XMLID_395_" class="st1" x1="337.5" y1="166.1" x2="337.5" y2="106.1"/>
		<line id="XMLID_394_" class="st1" x1="324.5" y1="159.1" x2="324.5" y2="99.1"/>
		<line id="XMLID_393_" class="st1" x1="350.5" y1="174.1" x2="350.5" y2="114.1"/>
	</g>
	<g id="XMLID_387_">
		<polyline id="XMLID_391_" class="st0" points="364,182.1 364,151.1 364,121.1 390,106.1 416,91.1 416,121.1 416.7,151.1 
			364.6,181.8 		"/>
		<line id="XMLID_390_" class="st1" x1="390.5" y1="166.1" x2="390.5" y2="106.1"/>
		<line id="XMLID_389_" class="st1" x1="403.5" y1="159.1" x2="403.5" y2="99.1"/>
		<line id="XMLID_388_" class="st1" x1="377.5" y1="174.1" x2="377.5" y2="114.1"/>
	</g>
	<g id="XMLID_382_">
		<polyline id="XMLID_386_" class="st0" points="468,182.1 468,151.1 468,121.1 442,106.1 416,91.1 416,121.1 416.1,151.1 
			467.8,181.8 		"/>
		<line id="XMLID_385_" class="st1" x1="441.5" y1="166.1" x2="441.5" y2="106.1"/>
		<line id="XMLID_384_" class="st1" x1="428.5" y1="159.1" x2="428.5" y2="99.1"/>
		<line id="XMLID_383_" class="st1" x1="454.5" y1="174.1" x2="454.5" y2="114.1"/>
	</g>
	<g id="XMLID_377_">
		<polyline id="XMLID_381_" class="st0" points="468,182.1 468,151.1 468,121.1 494,106.1 520,91.1 520,121.1 520.7,151.1 
			468.6,181.8 		"/>
		<line id="XMLID_380_" class="st1" x1="494.5" y1="166.1" x2="494.5" y2="106.1"/>
		<line id="XMLID_379_" class="st1" x1="507.5" y1="159.1" x2="507.5" y2="99.1"/>
		<line id="XMLID_378_" class="st1" x1="481.5" y1="174.1" x2="481.5" y2="114.1"/>
	</g>
	<g id="XMLID_372_">
		<polyline id="XMLID_376_" class="st0" points="572,182.1 572,151.1 572,121.1 546,106.1 520,91.1 520,121.1 520.1,151.1 
			571.8,181.8 		"/>
		<line id="XMLID_375_" class="st1" x1="545.5" y1="166.1" x2="545.5" y2="106.1"/>
		<line id="XMLID_374_" class="st1" x1="532.5" y1="159.1" x2="532.5" y2="99.1"/>
		<line id="XMLID_373_" class="st1" x1="558.5" y1="174.1" x2="558.5" y2="114.1"/>
	</g>
	<g id="XMLID_367_">
		<polyline id="XMLID_371_" class="st0" points="572,182.1 572,151.1 572,121.1 598,106.1 624,91.1 624,121.1 624.7,151.1 
			572.6,181.8 		"/>
		<line id="XMLID_370_" class="st1" x1="598.5" y1="166.1" x2="598.5" y2="106.1"/>
		<line id="XMLID_369_" class="st1" x1="611.5" y1="159.1" x2="611.5" y2="99.1"/>
		<line id="XMLID_368_" class="st1" x1="585.5" y1="174.1" x2="585.5" y2="114.1"/>
	</g>
	<g id="XMLID_362_">
		<polyline id="XMLID_366_" class="st0" points="676,182.1 676,151.1 676,121.1 650,106.1 624,91.1 624,121.1 624.1,151.1 
			675.8,181.8 		"/>
		<line id="XMLID_365_" class="st1" x1="649.5" y1="166.1" x2="649.5" y2="106.1"/>
		<line id="XMLID_364_" class="st1" x1="636.5" y1="159.1" x2="636.5" y2="99.1"/>
		<line id="XMLID_363_" class="st1" x1="662.5" y1="174.1" x2="662.5" y2="114.1"/>
	</g>
	<g id="XMLID_357_">
		<line id="XMLID_469_" class="st0" x1="728.9" y1="151.1" x2="676.9" y2="181.6"/>
		<polyline id="XMLID_468_" class="st0" points="676,182.1 676,151.1 676,121.1 702.3,106.1 728.1,91.3 		"/>
		<line id="XMLID_360_" class="st1" x1="702.5" y1="166.1" x2="702.5" y2="106.1"/>
		<line id="XMLID_359_" class="st1" x1="715.5" y1="159.1" x2="715.5" y2="99.1"/>
		<line id="XMLID_358_" class="st1" x1="689.5" y1="174.1" x2="689.5" y2="114.1"/>
	</g>
	<g id="XMLID_352_">
		<polyline id="XMLID_356_" class="st0" points="104,91.1 104,60.1 104,30.1 130,15.1 156,0.1 156,30.1 156.7,60.1 104.6,90.8 		"/>
		<line id="XMLID_355_" class="st1" x1="130.5" y1="75.1" x2="130.5" y2="15.1"/>
		<line id="XMLID_354_" class="st1" x1="143.5" y1="68.1" x2="143.5" y2="8.1"/>
		<line id="XMLID_353_" class="st1" x1="117.5" y1="83.1" x2="117.5" y2="23.1"/>
	</g>
	<g id="XMLID_347_">
		<polyline id="XMLID_480_" class="st0" points="0.5,30.1 26.3,15.1 52,0.1 52,30.1 52.7,60.1 0.8,90.6 		"/>
		<path id="XMLID_351_" class="st0" d="M0.5,90.6"/>
		<line id="XMLID_350_" class="st1" x1="26.5" y1="75.1" x2="26.5" y2="15.1"/>
		<line id="XMLID_349_" class="st1" x1="39.5" y1="68.1" x2="39.5" y2="8.1"/>
		<line id="XMLID_348_" class="st1" x1="13.5" y1="83.1" x2="13.5" y2="23.1"/>
	</g>
	<g id="XMLID_342_">
		<polyline id="XMLID_346_" class="st0" points="208,91.1 208,60.1 208,30.1 182,15.1 156,0.1 156,30.1 156.1,60.1 207.8,90.8 		"/>
		<line id="XMLID_345_" class="st1" x1="181.5" y1="75.1" x2="181.5" y2="15.1"/>
		<line id="XMLID_344_" class="st1" x1="168.5" y1="68.1" x2="168.5" y2="8.1"/>
		<line id="XMLID_343_" class="st1" x1="194.5" y1="83.1" x2="194.5" y2="23.1"/>
	</g>
	<g id="XMLID_337_">
		<polyline id="XMLID_341_" class="st0" points="104,91.1 104,60.1 104,30.1 78,15.1 52,0.1 52,30.1 52.1,60.1 103.8,90.8 		"/>
		<line id="XMLID_340_" class="st1" x1="77.5" y1="75.1" x2="77.5" y2="15.1"/>
		<line id="XMLID_339_" class="st1" x1="64.5" y1="68.1" x2="64.5" y2="8.1"/>
		<line id="XMLID_338_" class="st1" x1="90.5" y1="83.1" x2="90.5" y2="23.1"/>
	</g>
	<g id="XMLID_332_">
		<polyline id="XMLID_336_" class="st0" points="208,91.1 208,60.1 208,30.1 234,15.1 260,0.1 260,30.1 260.7,60.1 208.6,90.8 		"/>
		<line id="XMLID_335_" class="st1" x1="234.5" y1="75.1" x2="234.5" y2="15.1"/>
		<line id="XMLID_334_" class="st1" x1="247.5" y1="68.1" x2="247.5" y2="8.1"/>
		<line id="XMLID_333_" class="st1" x1="221.5" y1="83.1" x2="221.5" y2="23.1"/>
	</g>
	<g id="XMLID_327_">
		<polyline id="XMLID_331_" class="st0" points="312,91.1 312,60.1 312,30.1 286,15.1 260,0.1 260,30.1 260.1,60.1 311.8,90.8 		"/>
		<line id="XMLID_330_" class="st1" x1="285.5" y1="75.1" x2="285.5" y2="15.1"/>
		<line id="XMLID_329_" class="st1" x1="272.5" y1="68.1" x2="272.5" y2="8.1"/>
		<line id="XMLID_328_" class="st1" x1="298.5" y1="83.1" x2="298.5" y2="23.1"/>
	</g>
	<g id="XMLID_322_">
		<polyline id="XMLID_326_" class="st0" points="312,91.1 312,60.1 312,30.1 338,15.1 364,0.1 364,30.1 364.7,60.1 312.6,90.8 		"/>
		<line id="XMLID_325_" class="st1" x1="338.5" y1="75.1" x2="338.5" y2="15.1"/>
		<line id="XMLID_324_" class="st1" x1="351.5" y1="68.1" x2="351.5" y2="8.1"/>
		<line id="XMLID_323_" class="st1" x1="325.5" y1="83.1" x2="325.5" y2="23.1"/>
	</g>
	<g id="XMLID_317_">
		<polyline id="XMLID_321_" class="st0" points="416,91.1 416,60.1 416,30.1 390,15.1 364,0.1 364,30.1 364.1,60.1 415.8,90.8 		"/>
		<line id="XMLID_320_" class="st1" x1="389.5" y1="75.1" x2="389.5" y2="15.1"/>
		<line id="XMLID_319_" class="st1" x1="376.5" y1="68.1" x2="376.5" y2="8.1"/>
		<line id="XMLID_318_" class="st1" x1="402.5" y1="83.1" x2="402.5" y2="23.1"/>
	</g>
	<g id="XMLID_312_">
		<polyline id="XMLID_316_" class="st0" points="416,91.1 416,60.1 416,30.1 442,15.1 468,0.1 468,30.1 468.7,60.1 416.6,90.8 		"/>
		<line id="XMLID_315_" class="st1" x1="442.5" y1="75.1" x2="442.5" y2="15.1"/>
		<line id="XMLID_314_" class="st1" x1="455.5" y1="68.1" x2="455.5" y2="8.1"/>
		<line id="XMLID_313_" class="st1" x1="429.5" y1="83.1" x2="429.5" y2="23.1"/>
	</g>
	<g id="XMLID_307_">
		<polyline id="XMLID_311_" class="st0" points="520,91.1 520,60.1 520,30.1 494,15.1 468,0.1 468,30.1 468.1,60.1 519.8,90.8 		"/>
		<line id="XMLID_310_" class="st1" x1="493.5" y1="75.1" x2="493.5" y2="15.1"/>
		<line id="XMLID_309_" class="st1" x1="480.5" y1="68.1" x2="480.5" y2="8.1"/>
		<line id="XMLID_308_" class="st1" x1="506.5" y1="83.1" x2="506.5" y2="23.1"/>
	</g>
	<g id="XMLID_302_">
		<polyline id="XMLID_306_" class="st0" points="520,91.1 520,60.1 520,30.1 546,15.1 572,0.1 572,30.1 572.7,60.1 520.6,90.8 		"/>
		<line id="XMLID_305_" class="st1" x1="546.5" y1="75.1" x2="546.5" y2="15.1"/>
		<line id="XMLID_304_" class="st1" x1="559.5" y1="68.1" x2="559.5" y2="8.1"/>
		<line id="XMLID_303_" class="st1" x1="533.5" y1="83.1" x2="533.5" y2="23.1"/>
	</g>
	<g id="XMLID_297_">
		<polyline id="XMLID_301_" class="st0" points="624,91.1 624,60.1 624,30.1 598,15.1 572,0.1 572,30.1 572.1,60.1 623.8,90.8 		"/>
		<line id="XMLID_300_" class="st1" x1="597.5" y1="75.1" x2="597.5" y2="15.1"/>
		<line id="XMLID_299_" class="st1" x1="584.5" y1="68.1" x2="584.5" y2="8.1"/>
		<line id="XMLID_298_" class="st1" x1="610.5" y1="83.1" x2="610.5" y2="23.1"/>
	</g>
	<g id="XMLID_292_">
		<polyline id="XMLID_296_" class="st0" points="624,91.1 624,60.1 624,30.1 650,15.1 676,0.1 676,30.1 676.7,60.1 624.6,90.8 		"/>
		<line id="XMLID_295_" class="st1" x1="650.5" y1="75.1" x2="650.5" y2="15.1"/>
		<line id="XMLID_294_" class="st1" x1="663.5" y1="68.1" x2="663.5" y2="8.1"/>
		<line id="XMLID_293_" class="st1" x1="637.5" y1="83.1" x2="637.5" y2="23.1"/>
	</g>
	<g id="XMLID_287_">
		<polyline id="XMLID_477_" class="st0" points="728.5,30.1 702.3,15.1 676,0.1 676,30.1 676.1,60.1 728.1,90.6 		"/>
		<path id="XMLID_291_" class="st0" d="M728.5,90.6"/>
		<line id="XMLID_290_" class="st1" x1="701.5" y1="75.1" x2="701.5" y2="15.1"/>
		<line id="XMLID_289_" class="st1" x1="688.5" y1="68.1" x2="688.5" y2="8.1"/>
		<line id="XMLID_288_" class="st1" x1="714.5" y1="83.1" x2="714.5" y2="23.1"/>
	</g>
	<g id="XMLID_282_">
		<polyline id="XMLID_286_" class="st0" points="208.9,91.1 182.9,76.1 157,61.1 131,76.1 105,91.1 131,106.1 157,121.1 
			182.9,106.1 208.9,91.1 		"/>
		<line id="XMLID_285_" class="st1" x1="182.9" y1="106.1" x2="131" y2="76.1"/>
		<line id="XMLID_284_" class="st1" x1="170" y1="113.6" x2="118" y2="83.6"/>
		<line id="XMLID_283_" class="st1" x1="195.9" y1="98.6" x2="144" y2="68.6"/>
	</g>
	<g id="XMLID_277_">
		<polyline id="XMLID_281_" class="st0" points="312.9,91.1 286.9,76.1 261,61.1 235,76.1 209,91.1 235,106.1 261,121.1 
			286.9,106.1 312.9,91.1 		"/>
		<line id="XMLID_280_" class="st1" x1="286.9" y1="106.1" x2="235" y2="76.1"/>
		<line id="XMLID_279_" class="st1" x1="274" y1="113.6" x2="222" y2="83.6"/>
		<line id="XMLID_278_" class="st1" x1="299.9" y1="98.6" x2="248" y2="68.6"/>
	</g>
	<g id="XMLID_272_">
		<polyline id="XMLID_276_" class="st0" points="416.9,91.1 390.9,76.1 365,61.1 339,76.1 313,91.1 339,106.1 365,121.1 
			390.9,106.1 416.9,91.1 		"/>
		<line id="XMLID_275_" class="st1" x1="390.9" y1="106.1" x2="339" y2="76.1"/>
		<line id="XMLID_274_" class="st1" x1="378" y1="113.6" x2="326" y2="83.6"/>
		<line id="XMLID_273_" class="st1" x1="403.9" y1="98.6" x2="352" y2="68.6"/>
	</g>
	<g id="XMLID_267_">
		<polyline id="XMLID_271_" class="st0" points="520.9,91.1 494.9,76.1 469,61.1 443,76.1 417,91.1 443,106.1 469,121.1 
			494.9,106.1 520.9,91.1 		"/>
		<line id="XMLID_270_" class="st1" x1="494.9" y1="106.1" x2="443" y2="76.1"/>
		<line id="XMLID_269_" class="st1" x1="482" y1="113.6" x2="430" y2="83.6"/>
		<line id="XMLID_268_" class="st1" x1="507.9" y1="98.6" x2="456" y2="68.6"/>
	</g>
	<g id="XMLID_262_">
		<polyline id="XMLID_266_" class="st0" points="624.9,91.1 598.9,76.1 573,61.1 547,76.1 521,91.1 547,106.1 573,121.1 
			598.9,106.1 624.9,91.1 		"/>
		<line id="XMLID_265_" class="st1" x1="598.9" y1="106.1" x2="547" y2="76.1"/>
		<line id="XMLID_264_" class="st1" x1="586" y1="113.6" x2="534" y2="83.6"/>
		<line id="XMLID_263_" class="st1" x1="611.9" y1="98.6" x2="560" y2="68.6"/>
	</g>
	<g id="XMLID_257_">
		<polyline id="XMLID_261_" class="st0" points="728.9,91.1 702.9,76.1 677,61.1 651,76.1 625,91.1 651,106.1 677,121.1 
			702.9,106.1 728.9,91.1 		"/>
		<line id="XMLID_260_" class="st1" x1="702.9" y1="106.1" x2="651" y2="76.1"/>
		<line id="XMLID_259_" class="st1" x1="690" y1="113.6" x2="638" y2="83.6"/>
		<line id="XMLID_258_" class="st1" x1="715.9" y1="98.6" x2="664" y2="68.6"/>
	</g>
	<g id="XMLID_247_">
		<polyline id="XMLID_251_" class="st0" points="156.9,182.1 130.9,167.1 105,152.1 79,167.1 53,182.1 79,197.1 105,212.1 
			130.9,197.1 156.9,182.1 		"/>
		<line id="XMLID_250_" class="st1" x1="130.9" y1="197.1" x2="79" y2="167.1"/>
		<line id="XMLID_249_" class="st1" x1="118" y1="204.6" x2="66" y2="174.6"/>
		<line id="XMLID_248_" class="st1" x1="143.9" y1="189.6" x2="92" y2="159.6"/>
	</g>
	<g id="XMLID_242_">
		<polyline id="XMLID_246_" class="st0" points="260.9,182.1 234.9,167.1 209,152.1 183,167.1 157,182.1 183,197.1 209,212.1 
			234.9,197.1 260.9,182.1 		"/>
		<line id="XMLID_245_" class="st1" x1="234.9" y1="197.1" x2="183" y2="167.1"/>
		<line id="XMLID_244_" class="st1" x1="222" y1="204.6" x2="170" y2="174.6"/>
		<line id="XMLID_243_" class="st1" x1="247.9" y1="189.6" x2="196" y2="159.6"/>
	</g>
	<g id="XMLID_237_">
		<polyline id="XMLID_241_" class="st0" points="364.9,182.1 338.9,167.1 313,152.1 287,167.1 261,182.1 287,197.1 313,212.1 
			338.9,197.1 364.9,182.1 		"/>
		<line id="XMLID_240_" class="st1" x1="338.9" y1="197.1" x2="287" y2="167.1"/>
		<line id="XMLID_239_" class="st1" x1="326" y1="204.6" x2="274" y2="174.6"/>
		<line id="XMLID_238_" class="st1" x1="351.9" y1="189.6" x2="300" y2="159.6"/>
	</g>
	<g id="XMLID_232_">
		<polyline id="XMLID_236_" class="st0" points="468.9,182.1 442.9,167.1 417,152.1 391,167.1 365,182.1 391,197.1 417,212.1 
			442.9,197.1 468.9,182.1 		"/>
		<line id="XMLID_235_" class="st1" x1="442.9" y1="197.1" x2="391" y2="167.1"/>
		<line id="XMLID_234_" class="st1" x1="430" y1="204.6" x2="378" y2="174.6"/>
		<line id="XMLID_233_" class="st1" x1="455.9" y1="189.6" x2="404" y2="159.6"/>
	</g>
	<g id="XMLID_227_">
		<polyline id="XMLID_231_" class="st0" points="572.9,182.1 546.9,167.1 521,152.1 495,167.1 469,182.1 495,197.1 521,212.1 
			546.9,197.1 572.9,182.1 		"/>
		<line id="XMLID_230_" class="st1" x1="546.9" y1="197.1" x2="495" y2="167.1"/>
		<line id="XMLID_229_" class="st1" x1="534" y1="204.6" x2="482" y2="174.6"/>
		<line id="XMLID_228_" class="st1" x1="559.9" y1="189.6" x2="508" y2="159.6"/>
	</g>
	<g id="XMLID_222_">
		<polyline id="XMLID_226_" class="st0" points="676.9,182.1 650.9,167.1 625,152.1 599,167.1 573,182.1 599,197.1 625,212.1 
			650.9,197.1 676.9,182.1 		"/>
		<line id="XMLID_225_" class="st1" x1="650.9" y1="197.1" x2="599" y2="167.1"/>
		<line id="XMLID_224_" class="st1" x1="638" y1="204.6" x2="586" y2="174.6"/>
		<line id="XMLID_223_" class="st1" x1="663.9" y1="189.6" x2="612" y2="159.6"/>
	</g>
	<g id="XMLID_212_">
		<polyline id="XMLID_438_" class="st0" points="728.5,212.2 702.4,197.1 676.8,182.1 702.5,167.1 728.9,151.1 728.9,91.1 
			728.5,30.1 		"/>
		<line id="XMLID_215_" class="st1" x1="728.5" y1="181.8" x2="703" y2="167.1"/>
		<line id="XMLID_214_" class="st1" x1="728.5" y1="196.8" x2="690" y2="174.6"/>
		<line id="XMLID_213_" class="st1" x1="728.5" y1="166.8" x2="716" y2="159.6"/>
	</g>
	<g id="XMLID_217_">
		<path id="XMLID_492_" class="st0" d="M729,364.1"/>
		<polyline id="XMLID_203_" class="st0" points="676.8,364.1 702.6,349.1 729.1,333.1 728.9,273.1 728.5,212.2 		"/>
		<line id="XMLID_220_" class="st1" x1="728.5" y1="363.8" x2="703" y2="349.1"/>
		<line id="XMLID_219_" class="st1" x1="702.5" y1="363.8" x2="690" y2="356.6"/>
		<line id="XMLID_218_" class="st1" x1="728.5" y1="348.8" x2="716" y2="341.6"/>
	</g>
	<g id="XMLID_437_">
		<polyline id="XMLID_416_" class="st0" points="0.3,151.1 26.1,167.1 51.9,182.1 26.2,197.1 0.5,212.2 		"/>
	</g>
	<g id="XMLID_432_">
		<path id="XMLID_484_" class="st0" d="M0.2,364.1"/>
		<polyline id="XMLID_113_" class="st0" points="51.9,364.1 26.1,349.1 0.3,333.1 		"/>
	</g>
	<g id="XMLID_467_">
		<polyline id="XMLID_205_" class="st0" points="53,0.1 79,15.1 105,30.1 130.9,15.1 156.9,0.1 		"/>
		<path id="XMLID_208_" class="st0" d="M156.9,0.1"/>
		<line id="XMLID_210_" class="st1" x1="130.9" y1="15.1" x2="105" y2="0.1"/>
		<line id="XMLID_209_" class="st1" x1="118" y1="22.6" x2="79" y2="0.1"/>
		<line id="XMLID_435_" class="st1" x1="26.9" y1="364.1" x2="0" y2="348.5"/>
		<line id="XMLID_221_" class="st1" x1="26.9" y1="197.1" x2="0" y2="181.5"/>
		<line id="XMLID_204_" class="st1" x1="14" y1="204.6" x2="0" y2="196.5"/>
		<line id="XMLID_108_" class="st1" x1="39.9" y1="189.6" x2="0" y2="166.5"/>
		<line id="XMLID_495_" class="st1" x1="26.9" y1="15.1" x2="1" y2="0.1"/>
		<line id="XMLID_433_" class="st1" x1="14" y1="22.6" x2="0" y2="14.5"/>
		<line id="XMLID_207_" class="st1" x1="143.9" y1="7.6" x2="130.8" y2="0"/>
	</g>
	<g id="XMLID_255_">
		<polyline id="XMLID_445_" class="st0" points="157,0.1 183,15.1 209,30.1 234.9,15.1 260.9,0.1 		"/>
		<path id="XMLID_444_" class="st0" d="M260.9,0.1"/>
		<line id="XMLID_443_" class="st1" x1="234.9" y1="15.1" x2="209" y2="0.1"/>
		<line id="XMLID_442_" class="st1" x1="222" y1="22.6" x2="183" y2="0.1"/>
		<line id="XMLID_256_" class="st1" x1="247.9" y1="7.6" x2="234.8" y2="0"/>
	</g>
	<g id="XMLID_446_">
		<polyline id="XMLID_451_" class="st0" points="261,0.1 287,15.1 313,30.1 338.9,15.1 364.9,0.1 		"/>
		<path id="XMLID_450_" class="st0" d="M364.9,0.1"/>
		<line id="XMLID_449_" class="st1" x1="338.9" y1="15.1" x2="313" y2="0.1"/>
		<line id="XMLID_448_" class="st1" x1="326" y1="22.6" x2="287" y2="0.1"/>
		<line id="XMLID_447_" class="st1" x1="351.9" y1="7.6" x2="338.8" y2="0"/>
	</g>
	<g id="XMLID_452_">
		<polyline id="XMLID_457_" class="st0" points="365,0.1 391,15.1 417,30.1 442.9,15.1 468.9,0.1 		"/>
		<path id="XMLID_456_" class="st0" d="M468.9,0.1"/>
		<line id="XMLID_455_" class="st1" x1="442.9" y1="15.1" x2="417" y2="0.1"/>
		<line id="XMLID_454_" class="st1" x1="430" y1="22.6" x2="391" y2="0.1"/>
		<line id="XMLID_453_" class="st1" x1="455.9" y1="7.6" x2="442.8" y2="0"/>
	</g>
	<g id="XMLID_458_">
		<polyline id="XMLID_463_" class="st0" points="469,0.1 495,15.1 521,30.1 546.9,15.1 572.9,0.1 		"/>
		<path id="XMLID_462_" class="st0" d="M572.9,0.1"/>
		<line id="XMLID_461_" class="st1" x1="546.9" y1="15.1" x2="521" y2="0.1"/>
		<line id="XMLID_460_" class="st1" x1="534" y1="22.6" x2="495" y2="0.1"/>
		<line id="XMLID_459_" class="st1" x1="559.9" y1="7.6" x2="546.8" y2="0"/>
	</g>
	<g id="XMLID_464_">
		<polyline id="XMLID_476_" class="st0" points="573,0.1 599,15.1 625,30.1 650.9,15.1 676.9,0.1 		"/>
		<path id="XMLID_471_" class="st0" d="M676.9,0.1"/>
		<line id="XMLID_470_" class="st1" x1="650.9" y1="15.1" x2="625" y2="0.1"/>
		<line id="XMLID_466_" class="st1" x1="638" y1="22.6" x2="599" y2="0.1"/>
		<line id="XMLID_465_" class="st1" x1="663.9" y1="7.6" x2="650.8" y2="0"/>
	</g>
	<g id="XMLID_252_">
		<polyline id="XMLID_211_" class="st0" points="676.8,0.1 702.4,15.1 728.5,30.2 		"/>
		<line id="XMLID_253_" class="st1" x1="728.5" y1="14.8" x2="703" y2="0.1"/>
	</g>
	<g id="XMLID_3_">
		<polyline id="XMLID_479_" class="st0" points="51.9,0.1 26.2,15.1 0.2,30.2 		"/>
	</g>
	<path id="XMLID_485_" class="st2" d="M729,364.1"/>
	<path id="XMLID_436_" class="st2" d="M0,364.1"/>
</g>
</svg>
