<?xml version="1.0" standalone="no"?>
<!DOCTYPE svg PUBLIC "-//W3C//DTD SVG 20010904//EN"
 "http://www.w3.org/TR/2001/REC-SVG-20010904/DTD/svg10.dtd">
<svg version="1.0" xmlns="http://www.w3.org/2000/svg"
 width="700.000000pt" height="700.000000pt" viewBox="0 0 700.000000 700.000000"
 preserveAspectRatio="xMidYMid meet">
<metadata>
Created by potrace 1.11, written by Peter Selinger 2001-2013
</metadata>
<g transform="translate(0.000000,700.000000) scale(0.100000,-0.100000)"
fill="#000000" stroke="none">
<path d="M4754 5309 c-17 -5 -46 -24 -66 -43 -127 -124 -80 -335 70 -311 117
18 200 175 151 284 -28 64 -83 89 -155 70z"/>
<path d="M5233 5247 c-124 -47 -205 -210 -167 -336 51 -172 259 -153 352 32
55 108 38 233 -39 290 -33 24 -103 31 -146 14z"/>
<path d="M5755 5079 c-179 -68 -250 -280 -124 -370 45 -32 153 -34 214 -4 51
25 130 103 148 148 70 166 -63 293 -238 226z"/>
<path d="M6470 4994 c-71 -18 -92 -29 -147 -73 -51 -40 -98 -106 -110 -153 -3
-12 -5 -47 -5 -75 1 -82 49 -141 136 -168 100 -30 230 8 316 95 57 58 83 109
88 181 11 141 -124 234 -278 193z"/>
<path d="M1555 4701 c-141 -65 -202 -250 -131 -396 33 -67 75 -100 144 -116
147 -34 287 109 284 289 -4 174 -156 288 -297 223z"/>
<path d="M5678 4588 c-174 -61 -255 -243 -166 -374 56 -84 196 -107 311 -51
97 48 159 140 161 238 1 149 -151 242 -306 187z"/>
<path d="M2140 4486 c-6 -9 -9 -19 -6 -24 3 -5 7 -98 10 -208 3 -109 9 -284
12 -389 8 -232 11 -375 14 -520 l2 -110 85 -165 c47 -91 102 -196 123 -235 20
-38 90 -173 155 -300 65 -126 124 -239 132 -250 7 -11 13 -30 13 -43 0 -30 4
-29 160 28 63 23 165 59 225 80 61 21 189 66 285 100 96 34 186 66 200 70 14
5 104 36 200 70 96 34 210 74 252 88 76 27 77 27 88 72 17 63 21 80 29 120 5
19 27 112 49 205 23 94 75 310 116 480 41 171 88 366 105 434 39 156 39 156
-2 157 -17 0 -140 36 -272 78 -132 43 -295 95 -362 117 -68 21 -180 57 -250
80 -71 22 -146 46 -168 53 -29 8 -197 11 -600 10 -308 0 -565 3 -571 8 -7 5
-16 2 -24 -6z"/>
<path d="M5088 4250 c-153 -44 -229 -256 -130 -362 72 -78 214 -28 275 95 73
149 -12 305 -145 267z"/>
<path d="M6039 4246 c-188 -67 -267 -281 -147 -399 43 -42 87 -58 160 -59 180
-1 335 183 282 337 -17 50 -80 110 -130 124 -52 14 -121 13 -165 -3z"/>
<path d="M1255 3970 c-77 -17 -145 -75 -184 -159 -33 -70 -37 -184 -8 -243 65
-137 226 -165 342 -60 47 41 71 82 90 146 53 183 -75 352 -240 316z"/>
<path d="M4522 3956 c-89 -41 -151 -174 -121 -263 32 -98 126 -127 218 -67
107 71 137 238 56 314 -31 29 -106 37 -153 16z"/>
<path d="M5625 3526 c-115 -54 -184 -187 -164 -314 17 -111 84 -182 182 -195
106 -14 235 84 267 204 38 141 -16 275 -127 315 -56 19 -102 17 -158 -10z"/>
<path d="M837 3155 c-43 -16 -92 -48 -124 -81 -23 -24 -65 -97 -71 -124 -14
-73 8 -149 57 -193 154 -139 426 -19 448 198 16 152 -149 259 -310 200z"/>
<path d="M1915 3126 c-108 -47 -174 -185 -142 -294 11 -38 57 -91 79 -93 7 0
25 -3 41 -5 67 -11 170 69 201 157 23 62 17 155 -10 193 -38 51 -108 69 -169
42z"/>
<path d="M5281 2848 c-68 -18 -115 -61 -159 -143 -23 -43 -27 -62 -27 -135 0
-69 5 -93 23 -127 44 -84 108 -125 193 -125 133 2 247 147 236 302 -4 64 -30
134 -66 174 -41 46 -134 72 -200 54z"/>
<path d="M1270 2786 c-161 -43 -244 -208 -164 -329 83 -126 309 -89 390 64 28
53 25 146 -6 191 -47 69 -132 98 -220 74z"/>
<path d="M490 2396 c-138 -38 -246 -165 -243 -287 1 -64 19 -104 63 -141 100
-83 299 -47 402 72 173 201 32 426 -222 356z"/>
<path d="M1255 2239 c-63 -12 -108 -35 -153 -78 -58 -57 -86 -114 -86 -182 -2
-168 196 -215 345 -81 135 121 120 308 -27 340 -22 4 -57 5 -79 1z"/>
<path d="M1782 2155 c-97 -42 -163 -140 -170 -251 -5 -78 10 -125 53 -163 64
-55 144 -51 227 12 53 40 108 142 112 207 10 149 -102 247 -222 195z"/>
<path d="M2253 2029 c-92 -46 -141 -181 -98 -272 30 -64 107 -87 173 -53 128
66 164 262 60 326 -42 25 -82 25 -135 -1z"/>
</g>
</svg>
