<?xml version="1.0" encoding="utf-8"?>
<!-- Generator: Adobe Illustrator 19.0.0, SVG Export Plug-In . SVG Version: 6.00 Build 0)  -->
<svg version="1.1" id="Layer_1" xmlns="http://www.w3.org/2000/svg" xmlns:xlink="http://www.w3.org/1999/xlink" x="0px" y="0px"
	 viewBox="0 0 180 180" style="enable-background:new 0 0 180 180;" xml:space="preserve">
<style type="text/css">
	.st0{fill:#CD6200;}
	.st1{fill:none;stroke:#FFFFFF;stroke-miterlimit:10;}
</style>
<g>
	<polyline class="st0" points="55,64.7 55.9,96.9 69.4,122.9 104.9,110.4 113.7,73.9 85,64.7 	"/>
	<ellipse transform="matrix(0.8961 0.4438 -0.4438 0.8961 34.0559 -49.4452)" class="st0" cx="122.6" cy="48" rx="3.8" ry="4.9"/>
	<ellipse transform="matrix(0.8961 0.4438 -0.4438 0.8961 36.5751 -54.7073)" class="st0" cx="135.1" cy="50.8" rx="4.8" ry="6.3"/>
	
		<ellipse transform="matrix(0.6034 0.7974 -0.7974 0.6034 102.3295 -97.2102)" class="st0" cx="148.9" cy="54.3" rx="4.8" ry="6.3"/>
	<ellipse transform="matrix(0.8828 0.4698 -0.4698 0.8828 50.9589 -52.5621)" class="st0" cx="130.8" cy="75.8" rx="4.2" ry="5.5"/>
	<ellipse transform="matrix(0.8828 0.4698 -0.4698 0.8828 52.5904 -45.3448)" class="st0" cx="117.2" cy="82.7" rx="4" ry="5.1"/>
	<ellipse transform="matrix(0.5315 0.847 -0.847 0.5315 126.9066 -114.145)" class="st0" cx="166.6" cy="57.7" rx="5.8" ry="7.5"/>
	<ellipse transform="matrix(0.5315 0.847 -0.847 0.5315 138.245 -96.8128)" class="st0" cx="156.6" cy="76.6" rx="5.8" ry="6.9"/>
	<ellipse transform="matrix(0.5315 0.847 -0.847 0.5315 126.3905 -93.0452)" class="st0" cx="147.3" cy="67.7" rx="5.8" ry="6.9"/>
	<ellipse transform="matrix(0.9411 0.3381 -0.3381 0.9411 40.9515 -43.833)" class="st0" cx="146.3" cy="95.6" rx="5.9" ry="7"/>
	<ellipse transform="matrix(0.9806 0.1959 -0.1959 0.9806 24.8872 -24.6011)" class="st0" cx="136.8" cy="113.5" rx="5.9" ry="7"/>
	<ellipse transform="matrix(-0.8961 -0.4438 0.4438 -0.8961 53.2546 276.4188)" class="st0" cx="59" cy="132" rx="3.8" ry="4.9"/>
	
		<ellipse transform="matrix(-0.8961 -0.4438 0.4438 -0.8961 30.3299 267.5527)" class="st0" cx="46.5" cy="130.2" rx="4.8" ry="6.3"/>
	
		<ellipse transform="matrix(-0.6398 -0.7686 0.7686 -0.6398 -46.1365 233.8294)" class="st0" cx="31.7" cy="127.7" rx="4.8" ry="6.3"/>
	
		<ellipse transform="matrix(-0.8828 -0.4698 0.4698 -0.8828 44.6937 220.1585)" class="st0" cx="49.8" cy="104.5" rx="4.2" ry="5.5"/>
	
		<ellipse transform="matrix(-0.5315 -0.847 0.847 -0.5315 -84.8711 201.7452)" class="st0" cx="13.4" cy="124.3" rx="5.8" ry="7.5"/>
	<ellipse transform="matrix(-0.5315 -0.847 0.847 -0.5315 -53.3922 179.6341)" class="st0" cx="23" cy="104.6" rx="5.8" ry="6.9"/>
	<ellipse transform="matrix(-0.5315 -0.847 0.847 -0.5315 -45.105 202.0175)" class="st0" cx="33.3" cy="113.5" rx="5.1" ry="6"/>
	<ellipse transform="matrix(-0.9411 -0.3381 0.3381 -0.9411 34.9002 175.3998)" class="st0" cx="32.7" cy="84.7" rx="5.9" ry="7"/>
	<ellipse transform="matrix(-0.9806 -0.1959 0.1959 -0.9806 69.794 137.9413)" class="st0" cx="41.7" cy="65.5" rx="5.9" ry="7"/>
	<polyline class="st1" points="55,64.7 69.7,77.8 113.7,73.9 	"/>
	<line class="st1" x1="69.7" y1="77.8" x2="69.4" y2="122.9"/>
</g>
</svg>
